M48
; DRILL file {KiCad 6.0.4-6f826c9f35~116~ubuntu20.04.1} date Fri 29 Apr 2022 05:41:34 PM CEST
; FORMAT={-:-/ absolute / inch / decimal}
; #@! TF.CreationDate,2022-04-29T17:41:34+02:00
; #@! TF.GenerationSoftware,Kicad,Pcbnew,6.0.4-6f826c9f35~116~ubuntu20.04.1
; #@! TF.FileFunction,Plated,1,2,PTH
FMAT,2
INCH
; #@! TA.AperFunction,Plated,PTH,ComponentDrill
T1C0.0256
; #@! TA.AperFunction,Plated,PTH,ComponentDrill
T2C0.0354
; #@! TA.AperFunction,Plated,PTH,ComponentDrill
T3C0.0394
; #@! TA.AperFunction,Plated,PTH,ComponentDrill
T4C0.0472
%
G90
G05
T1
X2.8711Y-3.4843
X2.874Y-3.3661
X2.874Y-3.7402
X2.874Y-3.8583
X2.874Y-3.9764
T2
X4.6156Y-2.9921
X4.6244Y-3.2677
X4.6244Y-3.5433
X4.6244Y-3.8189
X4.6244Y-4.0945
X4.7156Y-2.9921
X4.7244Y-3.2677
X4.7244Y-3.5433
X4.7244Y-3.8189
X4.7244Y-4.0945
T3
X3.0315Y-2.8543
X3.0315Y-2.9543
X3.0315Y-3.0543
X3.0315Y-3.1543
X3.0315Y-3.2543
X3.0315Y-3.3543
X3.0315Y-3.4543
X3.0315Y-3.5543
X3.0315Y-3.6543
X3.0315Y-3.7543
X3.0315Y-3.8543
X3.0315Y-3.9543
X3.0315Y-4.0543
X3.9315Y-2.8543
X3.9315Y-2.9543
X3.9315Y-3.0543
X3.9315Y-3.1543
X3.9315Y-3.2543
X3.9315Y-3.3543
X3.9315Y-3.4543
X3.9315Y-3.5543
X3.9315Y-3.6543
X3.9315Y-3.7543
X3.9315Y-3.8543
X3.9315Y-3.9543
X3.9315Y-4.0543
T4
X4.1472Y-3.3268
X4.1488Y-3.7795
X4.1535Y-3.1102
X4.1535Y-3.5433
X4.1535Y-3.9961
X4.4472Y-3.3268
X4.4488Y-3.7795
X4.4535Y-3.1102
X4.4535Y-3.5433
X4.4535Y-3.9961
T0
M30
