%TF.GenerationSoftware,KiCad,Pcbnew,6.0.4-6f826c9f35~116~ubuntu20.04.1*%
%TF.CreationDate,2022-04-29T17:40:21+02:00*%
%TF.ProjectId,wlap,776c6170-2e6b-4696-9361-645f70636258,rev?*%
%TF.SameCoordinates,Original*%
%TF.FileFunction,Soldermask,Top*%
%TF.FilePolarity,Negative*%
%FSLAX46Y46*%
G04 Gerber Fmt 4.6, Leading zero omitted, Abs format (unit mm)*
G04 Created by KiCad (PCBNEW 6.0.4-6f826c9f35~116~ubuntu20.04.1) date 2022-04-29 17:40:21*
%MOMM*%
%LPD*%
G01*
G04 APERTURE LIST*
%ADD10C,3.200000*%
%ADD11C,2.400000*%
%ADD12O,2.400000X2.400000*%
%ADD13R,1.800000X1.800000*%
%ADD14C,1.800000*%
%ADD15R,1.000000X1.000000*%
%ADD16R,1.700000X1.700000*%
%ADD17O,1.700000X1.700000*%
%ADD18C,1.700000*%
G04 APERTURE END LIST*
D10*
%TO.C,REF\u002A\u002A*%
X109000000Y-109000000D03*
%TD*%
%TO.C,REF\u002A\u002A*%
X68500000Y-107500000D03*
%TD*%
%TO.C,REF\u002A\u002A*%
X108000000Y-70500000D03*
%TD*%
%TO.C,REF\u002A\u002A*%
X68500000Y-75500000D03*
%TD*%
D11*
%TO.C,R5*%
X105500000Y-101500000D03*
D12*
X113120000Y-101500000D03*
%TD*%
D13*
%TO.C,D1*%
X119775000Y-76000000D03*
D14*
X117235000Y-76000000D03*
%TD*%
D13*
%TO.C,D4*%
X120000000Y-97000000D03*
D14*
X117460000Y-97000000D03*
%TD*%
D15*
%TO.C,J3*%
X72925000Y-88500000D03*
%TD*%
%TO.C,J2*%
X73000000Y-85500000D03*
%TD*%
D11*
%TO.C,R2*%
X105340000Y-84500000D03*
D12*
X112960000Y-84500000D03*
%TD*%
D15*
%TO.C,J5*%
X73000000Y-101000000D03*
%TD*%
D11*
%TO.C,R3*%
X105500000Y-90000000D03*
D12*
X113120000Y-90000000D03*
%TD*%
D15*
%TO.C,J4*%
X73000000Y-95000000D03*
%TD*%
D16*
%TO.C,U1*%
X77000000Y-72500000D03*
D17*
X77000000Y-75040000D03*
X77000000Y-77580000D03*
X77000000Y-80120000D03*
X77000000Y-82660000D03*
X77000000Y-85200000D03*
X77000000Y-87740000D03*
X77000000Y-90280000D03*
X77000000Y-92820000D03*
X77000000Y-95360000D03*
X77000000Y-97900000D03*
X77000000Y-100440000D03*
X77000000Y-102980000D03*
D18*
X99860000Y-102980000D03*
D17*
X99860000Y-100440000D03*
X99860000Y-97900000D03*
X99860000Y-95360000D03*
X99860000Y-92820000D03*
X99860000Y-90280000D03*
X99860000Y-87740000D03*
X99860000Y-85200000D03*
X99860000Y-82660000D03*
X99860000Y-80120000D03*
X99860000Y-77580000D03*
X99860000Y-75040000D03*
X99860000Y-72500000D03*
%TD*%
D13*
%TO.C,D3*%
X120000000Y-90000000D03*
D14*
X117460000Y-90000000D03*
%TD*%
D13*
%TO.C,D2*%
X120000000Y-83000000D03*
D14*
X117460000Y-83000000D03*
%TD*%
D11*
%TO.C,R1*%
X105500000Y-79000000D03*
D12*
X113120000Y-79000000D03*
%TD*%
D11*
%TO.C,R4*%
X105380000Y-96000000D03*
D12*
X113000000Y-96000000D03*
%TD*%
D15*
%TO.C,J1*%
X73000000Y-98000000D03*
%TD*%
D13*
%TO.C,D5*%
X120000000Y-104000000D03*
D14*
X117460000Y-104000000D03*
%TD*%
M02*
