%TF.GenerationSoftware,KiCad,Pcbnew,6.0.4-6f826c9f35~116~ubuntu20.04.1*%
%TF.CreationDate,2022-04-29T17:40:21+02:00*%
%TF.ProjectId,wlap,776c6170-2e6b-4696-9361-645f70636258,rev?*%
%TF.SameCoordinates,Original*%
%TF.FileFunction,Legend,Top*%
%TF.FilePolarity,Positive*%
%FSLAX46Y46*%
G04 Gerber Fmt 4.6, Leading zero omitted, Abs format (unit mm)*
G04 Created by KiCad (PCBNEW 6.0.4-6f826c9f35~116~ubuntu20.04.1) date 2022-04-29 17:40:21*
%MOMM*%
%LPD*%
G01*
G04 APERTURE LIST*
%ADD10C,0.150000*%
%ADD11C,0.120000*%
G04 APERTURE END LIST*
D10*
%TO.C,REF\u002A\u002A*%
X107666666Y-105252380D02*
X107333333Y-104776190D01*
X107095238Y-105252380D02*
X107095238Y-104252380D01*
X107476190Y-104252380D01*
X107571428Y-104300000D01*
X107619047Y-104347619D01*
X107666666Y-104442857D01*
X107666666Y-104585714D01*
X107619047Y-104680952D01*
X107571428Y-104728571D01*
X107476190Y-104776190D01*
X107095238Y-104776190D01*
X108095238Y-104728571D02*
X108428571Y-104728571D01*
X108571428Y-105252380D02*
X108095238Y-105252380D01*
X108095238Y-104252380D01*
X108571428Y-104252380D01*
X109333333Y-104728571D02*
X109000000Y-104728571D01*
X109000000Y-105252380D02*
X109000000Y-104252380D01*
X109476190Y-104252380D01*
X110000000Y-104252380D02*
X110000000Y-104490476D01*
X109761904Y-104395238D02*
X110000000Y-104490476D01*
X110238095Y-104395238D01*
X109857142Y-104680952D02*
X110000000Y-104490476D01*
X110142857Y-104680952D01*
X110761904Y-104252380D02*
X110761904Y-104490476D01*
X110523809Y-104395238D02*
X110761904Y-104490476D01*
X111000000Y-104395238D01*
X110619047Y-104680952D02*
X110761904Y-104490476D01*
X110904761Y-104680952D01*
X67166666Y-103752380D02*
X66833333Y-103276190D01*
X66595238Y-103752380D02*
X66595238Y-102752380D01*
X66976190Y-102752380D01*
X67071428Y-102800000D01*
X67119047Y-102847619D01*
X67166666Y-102942857D01*
X67166666Y-103085714D01*
X67119047Y-103180952D01*
X67071428Y-103228571D01*
X66976190Y-103276190D01*
X66595238Y-103276190D01*
X67595238Y-103228571D02*
X67928571Y-103228571D01*
X68071428Y-103752380D02*
X67595238Y-103752380D01*
X67595238Y-102752380D01*
X68071428Y-102752380D01*
X68833333Y-103228571D02*
X68500000Y-103228571D01*
X68500000Y-103752380D02*
X68500000Y-102752380D01*
X68976190Y-102752380D01*
X69500000Y-102752380D02*
X69500000Y-102990476D01*
X69261904Y-102895238D02*
X69500000Y-102990476D01*
X69738095Y-102895238D01*
X69357142Y-103180952D02*
X69500000Y-102990476D01*
X69642857Y-103180952D01*
X70261904Y-102752380D02*
X70261904Y-102990476D01*
X70023809Y-102895238D02*
X70261904Y-102990476D01*
X70500000Y-102895238D01*
X70119047Y-103180952D02*
X70261904Y-102990476D01*
X70404761Y-103180952D01*
X106666666Y-66752380D02*
X106333333Y-66276190D01*
X106095238Y-66752380D02*
X106095238Y-65752380D01*
X106476190Y-65752380D01*
X106571428Y-65800000D01*
X106619047Y-65847619D01*
X106666666Y-65942857D01*
X106666666Y-66085714D01*
X106619047Y-66180952D01*
X106571428Y-66228571D01*
X106476190Y-66276190D01*
X106095238Y-66276190D01*
X107095238Y-66228571D02*
X107428571Y-66228571D01*
X107571428Y-66752380D02*
X107095238Y-66752380D01*
X107095238Y-65752380D01*
X107571428Y-65752380D01*
X108333333Y-66228571D02*
X108000000Y-66228571D01*
X108000000Y-66752380D02*
X108000000Y-65752380D01*
X108476190Y-65752380D01*
X109000000Y-65752380D02*
X109000000Y-65990476D01*
X108761904Y-65895238D02*
X109000000Y-65990476D01*
X109238095Y-65895238D01*
X108857142Y-66180952D02*
X109000000Y-65990476D01*
X109142857Y-66180952D01*
X109761904Y-65752380D02*
X109761904Y-65990476D01*
X109523809Y-65895238D02*
X109761904Y-65990476D01*
X110000000Y-65895238D01*
X109619047Y-66180952D02*
X109761904Y-65990476D01*
X109904761Y-66180952D01*
X67166666Y-71752380D02*
X66833333Y-71276190D01*
X66595238Y-71752380D02*
X66595238Y-70752380D01*
X66976190Y-70752380D01*
X67071428Y-70800000D01*
X67119047Y-70847619D01*
X67166666Y-70942857D01*
X67166666Y-71085714D01*
X67119047Y-71180952D01*
X67071428Y-71228571D01*
X66976190Y-71276190D01*
X66595238Y-71276190D01*
X67595238Y-71228571D02*
X67928571Y-71228571D01*
X68071428Y-71752380D02*
X67595238Y-71752380D01*
X67595238Y-70752380D01*
X68071428Y-70752380D01*
X68833333Y-71228571D02*
X68500000Y-71228571D01*
X68500000Y-71752380D02*
X68500000Y-70752380D01*
X68976190Y-70752380D01*
X69500000Y-70752380D02*
X69500000Y-70990476D01*
X69261904Y-70895238D02*
X69500000Y-70990476D01*
X69738095Y-70895238D01*
X69357142Y-71180952D02*
X69500000Y-70990476D01*
X69642857Y-71180952D01*
X70261904Y-70752380D02*
X70261904Y-70990476D01*
X70023809Y-70895238D02*
X70261904Y-70990476D01*
X70500000Y-70895238D01*
X70119047Y-71180952D02*
X70261904Y-70990476D01*
X70404761Y-71180952D01*
%TO.C,R5*%
X109143333Y-98582380D02*
X108810000Y-98106190D01*
X108571904Y-98582380D02*
X108571904Y-97582380D01*
X108952857Y-97582380D01*
X109048095Y-97630000D01*
X109095714Y-97677619D01*
X109143333Y-97772857D01*
X109143333Y-97915714D01*
X109095714Y-98010952D01*
X109048095Y-98058571D01*
X108952857Y-98106190D01*
X108571904Y-98106190D01*
X110048095Y-97582380D02*
X109571904Y-97582380D01*
X109524285Y-98058571D01*
X109571904Y-98010952D01*
X109667142Y-97963333D01*
X109905238Y-97963333D01*
X110000476Y-98010952D01*
X110048095Y-98058571D01*
X110095714Y-98153809D01*
X110095714Y-98391904D01*
X110048095Y-98487142D01*
X110000476Y-98534761D01*
X109905238Y-98582380D01*
X109667142Y-98582380D01*
X109571904Y-98534761D01*
X109524285Y-98487142D01*
%TO.C,D1*%
X117766904Y-80412380D02*
X117766904Y-79412380D01*
X118005000Y-79412380D01*
X118147857Y-79460000D01*
X118243095Y-79555238D01*
X118290714Y-79650476D01*
X118338333Y-79840952D01*
X118338333Y-79983809D01*
X118290714Y-80174285D01*
X118243095Y-80269523D01*
X118147857Y-80364761D01*
X118005000Y-80412380D01*
X117766904Y-80412380D01*
X119290714Y-80412380D02*
X118719285Y-80412380D01*
X119005000Y-80412380D02*
X119005000Y-79412380D01*
X118909761Y-79555238D01*
X118814523Y-79650476D01*
X118719285Y-79698095D01*
%TO.C,D4*%
X117991904Y-101412380D02*
X117991904Y-100412380D01*
X118230000Y-100412380D01*
X118372857Y-100460000D01*
X118468095Y-100555238D01*
X118515714Y-100650476D01*
X118563333Y-100840952D01*
X118563333Y-100983809D01*
X118515714Y-101174285D01*
X118468095Y-101269523D01*
X118372857Y-101364761D01*
X118230000Y-101412380D01*
X117991904Y-101412380D01*
X119420476Y-100745714D02*
X119420476Y-101412380D01*
X119182380Y-100364761D02*
X118944285Y-101079047D01*
X119563333Y-101079047D01*
%TO.C,J3*%
X70159166Y-89587380D02*
X70159166Y-90301666D01*
X70111547Y-90444523D01*
X70016309Y-90539761D01*
X69873452Y-90587380D01*
X69778214Y-90587380D01*
X70540119Y-89587380D02*
X71159166Y-89587380D01*
X70825833Y-89968333D01*
X70968690Y-89968333D01*
X71063928Y-90015952D01*
X71111547Y-90063571D01*
X71159166Y-90158809D01*
X71159166Y-90396904D01*
X71111547Y-90492142D01*
X71063928Y-90539761D01*
X70968690Y-90587380D01*
X70682976Y-90587380D01*
X70587738Y-90539761D01*
X70540119Y-90492142D01*
%TO.C,J2*%
X70234166Y-86587380D02*
X70234166Y-87301666D01*
X70186547Y-87444523D01*
X70091309Y-87539761D01*
X69948452Y-87587380D01*
X69853214Y-87587380D01*
X70662738Y-86682619D02*
X70710357Y-86635000D01*
X70805595Y-86587380D01*
X71043690Y-86587380D01*
X71138928Y-86635000D01*
X71186547Y-86682619D01*
X71234166Y-86777857D01*
X71234166Y-86873095D01*
X71186547Y-87015952D01*
X70615119Y-87587380D01*
X71234166Y-87587380D01*
%TO.C,R2*%
X108983333Y-81582380D02*
X108650000Y-81106190D01*
X108411904Y-81582380D02*
X108411904Y-80582380D01*
X108792857Y-80582380D01*
X108888095Y-80630000D01*
X108935714Y-80677619D01*
X108983333Y-80772857D01*
X108983333Y-80915714D01*
X108935714Y-81010952D01*
X108888095Y-81058571D01*
X108792857Y-81106190D01*
X108411904Y-81106190D01*
X109364285Y-80677619D02*
X109411904Y-80630000D01*
X109507142Y-80582380D01*
X109745238Y-80582380D01*
X109840476Y-80630000D01*
X109888095Y-80677619D01*
X109935714Y-80772857D01*
X109935714Y-80868095D01*
X109888095Y-81010952D01*
X109316666Y-81582380D01*
X109935714Y-81582380D01*
%TO.C,J5*%
X70234166Y-102087380D02*
X70234166Y-102801666D01*
X70186547Y-102944523D01*
X70091309Y-103039761D01*
X69948452Y-103087380D01*
X69853214Y-103087380D01*
X71186547Y-102087380D02*
X70710357Y-102087380D01*
X70662738Y-102563571D01*
X70710357Y-102515952D01*
X70805595Y-102468333D01*
X71043690Y-102468333D01*
X71138928Y-102515952D01*
X71186547Y-102563571D01*
X71234166Y-102658809D01*
X71234166Y-102896904D01*
X71186547Y-102992142D01*
X71138928Y-103039761D01*
X71043690Y-103087380D01*
X70805595Y-103087380D01*
X70710357Y-103039761D01*
X70662738Y-102992142D01*
%TO.C,R3*%
X109143333Y-87082380D02*
X108810000Y-86606190D01*
X108571904Y-87082380D02*
X108571904Y-86082380D01*
X108952857Y-86082380D01*
X109048095Y-86130000D01*
X109095714Y-86177619D01*
X109143333Y-86272857D01*
X109143333Y-86415714D01*
X109095714Y-86510952D01*
X109048095Y-86558571D01*
X108952857Y-86606190D01*
X108571904Y-86606190D01*
X109476666Y-86082380D02*
X110095714Y-86082380D01*
X109762380Y-86463333D01*
X109905238Y-86463333D01*
X110000476Y-86510952D01*
X110048095Y-86558571D01*
X110095714Y-86653809D01*
X110095714Y-86891904D01*
X110048095Y-86987142D01*
X110000476Y-87034761D01*
X109905238Y-87082380D01*
X109619523Y-87082380D01*
X109524285Y-87034761D01*
X109476666Y-86987142D01*
%TO.C,J4*%
X77399166Y-85117380D02*
X77399166Y-85831666D01*
X77351547Y-85974523D01*
X77256309Y-86069761D01*
X77113452Y-86117380D01*
X77018214Y-86117380D01*
X78303928Y-85450714D02*
X78303928Y-86117380D01*
X78065833Y-85069761D02*
X77827738Y-85784047D01*
X78446785Y-85784047D01*
%TO.C,U1*%
X74308095Y-64952380D02*
X74308095Y-65761904D01*
X74355714Y-65857142D01*
X74403333Y-65904761D01*
X74498571Y-65952380D01*
X74689047Y-65952380D01*
X74784285Y-65904761D01*
X74831904Y-65857142D01*
X74879523Y-65761904D01*
X74879523Y-64952380D01*
X75879523Y-65952380D02*
X75308095Y-65952380D01*
X75593809Y-65952380D02*
X75593809Y-64952380D01*
X75498571Y-65095238D01*
X75403333Y-65190476D01*
X75308095Y-65238095D01*
%TO.C,D3*%
X117991904Y-94412380D02*
X117991904Y-93412380D01*
X118230000Y-93412380D01*
X118372857Y-93460000D01*
X118468095Y-93555238D01*
X118515714Y-93650476D01*
X118563333Y-93840952D01*
X118563333Y-93983809D01*
X118515714Y-94174285D01*
X118468095Y-94269523D01*
X118372857Y-94364761D01*
X118230000Y-94412380D01*
X117991904Y-94412380D01*
X118896666Y-93412380D02*
X119515714Y-93412380D01*
X119182380Y-93793333D01*
X119325238Y-93793333D01*
X119420476Y-93840952D01*
X119468095Y-93888571D01*
X119515714Y-93983809D01*
X119515714Y-94221904D01*
X119468095Y-94317142D01*
X119420476Y-94364761D01*
X119325238Y-94412380D01*
X119039523Y-94412380D01*
X118944285Y-94364761D01*
X118896666Y-94317142D01*
%TO.C,D2*%
X117991904Y-87412380D02*
X117991904Y-86412380D01*
X118230000Y-86412380D01*
X118372857Y-86460000D01*
X118468095Y-86555238D01*
X118515714Y-86650476D01*
X118563333Y-86840952D01*
X118563333Y-86983809D01*
X118515714Y-87174285D01*
X118468095Y-87269523D01*
X118372857Y-87364761D01*
X118230000Y-87412380D01*
X117991904Y-87412380D01*
X118944285Y-86507619D02*
X118991904Y-86460000D01*
X119087142Y-86412380D01*
X119325238Y-86412380D01*
X119420476Y-86460000D01*
X119468095Y-86507619D01*
X119515714Y-86602857D01*
X119515714Y-86698095D01*
X119468095Y-86840952D01*
X118896666Y-87412380D01*
X119515714Y-87412380D01*
%TO.C,R1*%
X109143333Y-76082380D02*
X108810000Y-75606190D01*
X108571904Y-76082380D02*
X108571904Y-75082380D01*
X108952857Y-75082380D01*
X109048095Y-75130000D01*
X109095714Y-75177619D01*
X109143333Y-75272857D01*
X109143333Y-75415714D01*
X109095714Y-75510952D01*
X109048095Y-75558571D01*
X108952857Y-75606190D01*
X108571904Y-75606190D01*
X110095714Y-76082380D02*
X109524285Y-76082380D01*
X109810000Y-76082380D02*
X109810000Y-75082380D01*
X109714761Y-75225238D01*
X109619523Y-75320476D01*
X109524285Y-75368095D01*
%TO.C,R4*%
X109023333Y-93082380D02*
X108690000Y-92606190D01*
X108451904Y-93082380D02*
X108451904Y-92082380D01*
X108832857Y-92082380D01*
X108928095Y-92130000D01*
X108975714Y-92177619D01*
X109023333Y-92272857D01*
X109023333Y-92415714D01*
X108975714Y-92510952D01*
X108928095Y-92558571D01*
X108832857Y-92606190D01*
X108451904Y-92606190D01*
X109880476Y-92415714D02*
X109880476Y-93082380D01*
X109642380Y-92034761D02*
X109404285Y-92749047D01*
X110023333Y-92749047D01*
%TO.C,J1*%
X77399166Y-98117380D02*
X77399166Y-98831666D01*
X77351547Y-98974523D01*
X77256309Y-99069761D01*
X77113452Y-99117380D01*
X77018214Y-99117380D01*
X78399166Y-99117380D02*
X77827738Y-99117380D01*
X78113452Y-99117380D02*
X78113452Y-98117380D01*
X78018214Y-98260238D01*
X77922976Y-98355476D01*
X77827738Y-98403095D01*
%TO.C,D5*%
X117991904Y-108412380D02*
X117991904Y-107412380D01*
X118230000Y-107412380D01*
X118372857Y-107460000D01*
X118468095Y-107555238D01*
X118515714Y-107650476D01*
X118563333Y-107840952D01*
X118563333Y-107983809D01*
X118515714Y-108174285D01*
X118468095Y-108269523D01*
X118372857Y-108364761D01*
X118230000Y-108412380D01*
X117991904Y-108412380D01*
X119468095Y-107412380D02*
X118991904Y-107412380D01*
X118944285Y-107888571D01*
X118991904Y-107840952D01*
X119087142Y-107793333D01*
X119325238Y-107793333D01*
X119420476Y-107840952D01*
X119468095Y-107888571D01*
X119515714Y-107983809D01*
X119515714Y-108221904D01*
X119468095Y-108317142D01*
X119420476Y-108364761D01*
X119325238Y-108412380D01*
X119087142Y-108412380D01*
X118991904Y-108364761D01*
X118944285Y-108317142D01*
D11*
%TO.C,R5*%
X107870000Y-101500000D02*
X111620000Y-101500000D01*
X107870000Y-101500000D02*
G75*
G03*
X107870000Y-101500000I-2370000J0D01*
G01*
%TO.C,D1*%
X121065000Y-77545000D02*
X121065000Y-74455000D01*
X121065000Y-74455170D02*
G75*
G03*
X115515000Y-76000462I-2560000J-1544830D01*
G01*
X115515000Y-75999538D02*
G75*
G03*
X121065000Y-77544830I2990000J-462D01*
G01*
X121005000Y-76000000D02*
G75*
G03*
X121005000Y-76000000I-2500000J0D01*
G01*
%TO.C,D4*%
X121290000Y-98545000D02*
X121290000Y-95455000D01*
X115740000Y-96999538D02*
G75*
G03*
X121290000Y-98544830I2990000J-462D01*
G01*
X121290000Y-95455170D02*
G75*
G03*
X115740000Y-97000462I-2560000J-1544830D01*
G01*
X121230000Y-97000000D02*
G75*
G03*
X121230000Y-97000000I-2500000J0D01*
G01*
%TO.C,J3*%
X71365000Y-88760000D02*
X67365000Y-88760000D01*
X71365000Y-88700000D02*
X67365000Y-88700000D01*
X71365000Y-88580000D02*
X67365000Y-88580000D01*
X67365000Y-88760000D02*
X67365000Y-88240000D01*
X73685000Y-88500000D02*
X73685000Y-89260000D01*
X72165000Y-87805000D02*
X72165000Y-87880323D01*
X72165000Y-89195000D02*
X71365000Y-89195000D01*
X71365000Y-89195000D02*
X71365000Y-87805000D01*
X73685000Y-89260000D02*
X72925000Y-89260000D01*
X71365000Y-87805000D02*
X72165000Y-87805000D01*
X67365000Y-88240000D02*
X71365000Y-88240000D01*
X71365000Y-88340000D02*
X67365000Y-88340000D01*
X71365000Y-88460000D02*
X67365000Y-88460000D01*
%TO.C,J2*%
X72240000Y-86195000D02*
X71440000Y-86195000D01*
X71440000Y-85340000D02*
X67440000Y-85340000D01*
X71440000Y-86195000D02*
X71440000Y-84805000D01*
X67440000Y-85240000D02*
X71440000Y-85240000D01*
X72240000Y-84805000D02*
X72240000Y-84880323D01*
X71440000Y-85700000D02*
X67440000Y-85700000D01*
X73760000Y-85500000D02*
X73760000Y-86260000D01*
X71440000Y-85760000D02*
X67440000Y-85760000D01*
X73760000Y-86260000D02*
X73000000Y-86260000D01*
X71440000Y-85580000D02*
X67440000Y-85580000D01*
X71440000Y-84805000D02*
X72240000Y-84805000D01*
X71440000Y-85460000D02*
X67440000Y-85460000D01*
X67440000Y-85760000D02*
X67440000Y-85240000D01*
%TO.C,R2*%
X107710000Y-84500000D02*
X111460000Y-84500000D01*
X107710000Y-84500000D02*
G75*
G03*
X107710000Y-84500000I-2370000J0D01*
G01*
%TO.C,J5*%
X71440000Y-101080000D02*
X67440000Y-101080000D01*
X71440000Y-100840000D02*
X67440000Y-100840000D01*
X71440000Y-101695000D02*
X71440000Y-100305000D01*
X72240000Y-101695000D02*
X71440000Y-101695000D01*
X73760000Y-101000000D02*
X73760000Y-101760000D01*
X71440000Y-100305000D02*
X72240000Y-100305000D01*
X72240000Y-100305000D02*
X72240000Y-100380323D01*
X71440000Y-100960000D02*
X67440000Y-100960000D01*
X73760000Y-101760000D02*
X73000000Y-101760000D01*
X71440000Y-101260000D02*
X67440000Y-101260000D01*
X71440000Y-101200000D02*
X67440000Y-101200000D01*
X67440000Y-101260000D02*
X67440000Y-100740000D01*
X67440000Y-100740000D02*
X71440000Y-100740000D01*
%TO.C,R3*%
X107870000Y-90000000D02*
X111620000Y-90000000D01*
X107870000Y-90000000D02*
G75*
G03*
X107870000Y-90000000I-2370000J0D01*
G01*
%TO.C,J4*%
X72240000Y-95695000D02*
X71440000Y-95695000D01*
X72240000Y-94305000D02*
X72240000Y-94380323D01*
X71440000Y-95260000D02*
X67440000Y-95260000D01*
X71440000Y-94840000D02*
X67440000Y-94840000D01*
X73760000Y-95760000D02*
X73000000Y-95760000D01*
X67440000Y-94740000D02*
X71440000Y-94740000D01*
X67440000Y-95260000D02*
X67440000Y-94740000D01*
X71440000Y-95695000D02*
X71440000Y-94305000D01*
X71440000Y-94960000D02*
X67440000Y-94960000D01*
X71440000Y-95200000D02*
X67440000Y-95200000D01*
X71440000Y-95080000D02*
X67440000Y-95080000D01*
X71440000Y-94305000D02*
X72240000Y-94305000D01*
X73760000Y-95000000D02*
X73760000Y-95760000D01*
%TO.C,U1*%
X75670000Y-73770000D02*
X75670000Y-104310000D01*
X75670000Y-73770000D02*
X78330000Y-73770000D01*
X101190000Y-104250000D02*
X98530000Y-104250000D01*
X78330000Y-73770000D02*
X78330000Y-104310000D01*
X101190000Y-104250000D02*
X101190000Y-71170000D01*
X78330000Y-71170000D02*
X78330000Y-72500000D01*
X75730000Y-71230000D02*
X75730000Y-66150000D01*
X75670000Y-104310000D02*
X78330000Y-104310000D01*
X101190000Y-71170000D02*
X98530000Y-71170000D01*
X75730000Y-66150000D02*
X101190000Y-66150000D01*
X77000000Y-71170000D02*
X78330000Y-71170000D01*
X101190000Y-71170000D02*
X101190000Y-66160000D01*
X98530000Y-104250000D02*
X98530000Y-71170000D01*
%TO.C,D3*%
X121290000Y-91545000D02*
X121290000Y-88455000D01*
X121290000Y-88455170D02*
G75*
G03*
X115740000Y-90000462I-2560000J-1544830D01*
G01*
X115740000Y-89999538D02*
G75*
G03*
X121290000Y-91544830I2990000J-462D01*
G01*
X121230000Y-90000000D02*
G75*
G03*
X121230000Y-90000000I-2500000J0D01*
G01*
%TO.C,D2*%
X121290000Y-84545000D02*
X121290000Y-81455000D01*
X115740000Y-82999538D02*
G75*
G03*
X121290000Y-84544830I2990000J-462D01*
G01*
X121290000Y-81455170D02*
G75*
G03*
X115740000Y-83000462I-2560000J-1544830D01*
G01*
X121230000Y-83000000D02*
G75*
G03*
X121230000Y-83000000I-2500000J0D01*
G01*
%TO.C,R1*%
X107870000Y-79000000D02*
X111620000Y-79000000D01*
X107870000Y-79000000D02*
G75*
G03*
X107870000Y-79000000I-2370000J0D01*
G01*
%TO.C,R4*%
X107750000Y-96000000D02*
X111500000Y-96000000D01*
X107750000Y-96000000D02*
G75*
G03*
X107750000Y-96000000I-2370000J0D01*
G01*
%TO.C,J1*%
X71440000Y-98695000D02*
X71440000Y-97305000D01*
X71440000Y-97840000D02*
X67440000Y-97840000D01*
X72240000Y-97305000D02*
X72240000Y-97380323D01*
X71440000Y-97305000D02*
X72240000Y-97305000D01*
X71440000Y-98260000D02*
X67440000Y-98260000D01*
X67440000Y-97740000D02*
X71440000Y-97740000D01*
X71440000Y-97960000D02*
X67440000Y-97960000D01*
X73760000Y-98000000D02*
X73760000Y-98760000D01*
X73760000Y-98760000D02*
X73000000Y-98760000D01*
X71440000Y-98080000D02*
X67440000Y-98080000D01*
X72240000Y-98695000D02*
X71440000Y-98695000D01*
X71440000Y-98200000D02*
X67440000Y-98200000D01*
X67440000Y-98260000D02*
X67440000Y-97740000D01*
%TO.C,D5*%
X121290000Y-105545000D02*
X121290000Y-102455000D01*
X115740000Y-103999538D02*
G75*
G03*
X121290000Y-105544830I2990000J-462D01*
G01*
X121290000Y-102455170D02*
G75*
G03*
X115740000Y-104000462I-2560000J-1544830D01*
G01*
X121230000Y-104000000D02*
G75*
G03*
X121230000Y-104000000I-2500000J0D01*
G01*
%TD*%
M02*
